# Blender v2.93.8 OBJ File: ''
# www.blender.org
mtllib box.mtl
o 立方体
v -0.045170 -0.729471 -0.055086
v -0.141246 -0.286544 0.659655
v -0.539186 -0.177063 -0.463821
v -0.635262 0.265864 0.250921
v 0.635262 -0.265864 -0.250921
v 0.539186 0.177063 0.463821
v 0.141246 0.286544 -0.659655
v 0.045170 0.729471 0.055086
vt 0.625000 0.000000
vt 0.375000 0.250000
vt 0.375000 0.000000
vt 0.625000 0.250000
vt 0.375000 0.500000
vt 0.625000 0.500000
vt 0.375000 0.750000
vt 0.625000 0.750000
vt 0.375000 1.000000
vt 0.125000 0.750000
vt 0.125000 0.500000
vt 0.875000 0.500000
vt 0.625000 1.000000
vt 0.875000 0.750000
vn -0.8040 -0.5478 0.2314
vn -0.5837 0.6527 -0.4830
vn 0.8040 0.5478 -0.2314
vn 0.5837 -0.6527 0.4830
vn 0.1135 -0.5234 -0.8445
vn -0.1135 0.5234 0.8445
usemtl None
s off
f 2/1/1 3/2/1 1/3/1
f 4/4/2 7/5/2 3/2/2
f 8/6/3 5/7/3 7/5/3
f 6/8/4 1/9/4 5/7/4
f 7/5/5 1/10/5 3/11/5
f 4/12/6 6/8/6 8/6/6
f 2/1/1 4/4/1 3/2/1
f 4/4/2 8/6/2 7/5/2
f 8/6/3 6/8/3 5/7/3
f 6/8/4 2/13/4 1/9/4
f 7/5/5 5/7/5 1/10/5
f 4/12/6 2/14/6 6/8/6
